<?xml version="1.0" standalone="no"?><!DOCTYPE svg PUBLIC "-//W3C//DTD SVG 1.1//EN" "http://www.w3.org/Graphics/SVG/1.1/DTD/svg11.dtd"><svg t="1742286883452" class="icon" viewBox="0 0 1024 1024" version="1.1" xmlns="http://www.w3.org/2000/svg" p-id="2654" width="256" height="256" xmlns:xlink="http://www.w3.org/1999/xlink"><path d="M488.96 24.633c-4.153-5.575-6.372 0-6.372 0l-121.344 996.636L492.26 1024l-3.3-999.367z m-215.723 791.21l-9.216-60.131-32.142 49.266-65.08-1.934 41.357 43.52-25.998 57.344 58.198-29.583 43.52 41.415-3.016-62.293 56.605-25.6L273.18 815.9zM386.39 445.157l-65.82 20.707-30.55-58.197-19.91 83-70.429 36.523 55.865 12.857-12.97 84.082 54.328-70.258 64.285 19.911-22.984-65.365 48.185-63.26zM84.082 584.533L47.445 633.97 0 641.82l29.013 31.688-26.737 54.385 47.445-37.546L83.285 723l2.333-52.338 41.358-33.621-43.577-2.048 0.683-50.46z m87.324-170.95l21.39-26.739-27.534 6.94-14.563-25.713-13.085 39.538-35.84 17.806 24.462 5.973-6.087 35.556 29.014-32.597 29.07 10.809-6.827-31.574z m125.44-140.346l13.824 7.965 6.144-19.911 21.334-16.783-16.783-2.958v-15.815l-17.635 20.821-23.723 3.983 8.363 15.701-14.507 20.764 22.983-13.767z m596.31-147.171S791.04 60.814 597.788 106.61c0 0 246.955-23.552 309.248 165.205 0 0 43.008 191.488-104.106 338.66 0 0-106.382 118.044-177.323 147.114L531.172 3.982s-7.51-12.458-7.51 6.998v1002.04s114.916-40.22 125.61-59.733l-15.018-124.871s315.79-158.265 380.189-420.523c0 0 60.131-192.967-121.287-281.77z" p-id="2655" fill="#2c2c2c"></path></svg>